<?xml version="1.0" encoding="utf-8"?>
<!-- Generator: Adobe Illustrator 20.1.0, SVG Export Plug-In . SVG Version: 6.00 Build 0)  -->
<svg version="1.1" id="Layer_1" xmlns="http://www.w3.org/2000/svg" xmlns:xlink="http://www.w3.org/1999/xlink" x="0px" y="0px"
	 viewBox="0 0 300.7 300.52" style="enable-background:new 0 0 300.7 300.52;" xml:space="preserve">
<style type="text/css">
	.st0{fill:#2B87E2;}
	.st1{fill:#2B3990;}
	.st2{fill:#F9B406;}
	.st3{fill:#2BAA45;}
	.st4{fill:#F71F14;}
</style>
<g>
	<g>
		<path class="st0" d="M9.44,175.75c3.08-10.92,6.91-21.67,11.48-32.14l0.12,0.05c10.49,4.58,21.24,8.42,32.18,11.51
			c8.65,2.43,14.12-1.36,12.64-7.98c-1.15-5.13-1.97-9.64-2.5-12.03c-1.82-8.23,5.4-16.82,16.14-19.22
			c10.74-2.39,20.94,2.33,22.78,10.56c0.78,3.52-1.02,12.33-4.19,21.45c-2.95,8.48,0.76,15.82,9.73,16.3
			c9.47,0.51,19.02,0.49,28.57-0.08h0.02c-4.57,10.49-8.42,21.22-11.49,32.16c-2.45,8.65,1.34,14.12,7.96,12.64
			c5.13-1.15,9.63-1.97,12.03-2.5c8.22-1.83,16.82,5.4,19.22,16.14c2.39,10.74-2.34,20.94-10.56,22.78
			c-3.52,0.77-12.33-1.02-21.44-4.2c-8.48-2.94-15.82,0.76-16.31,9.73c-0.51,9.48-0.49,19.01,0.08,28.57l-0.02,0.03
			c-9.55,0.56-19.07,0.59-28.57,0.07c-8.97-0.49-12.67-7.82-9.72-16.32c3.18-9.1,4.97-17.9,4.19-21.43
			c-1.84-8.23-12.04-12.95-22.78-10.56c-10.74,2.4-17.97,11-16.14,19.22c0.53,2.39,1.35,6.9,2.51,12.03
			c1.5,6.63-3.98,10.41-12.64,7.97c-10.94-3.08-21.69-6.91-32.18-11.49l-0.11-0.1c-0.56-9.55-0.59-19.08-0.06-28.57
			c0.47-8.97,7.8-12.68,16.3-9.72c9.1,3.17,17.92,4.99,21.43,4.19c8.23-1.84,12.95-12.04,10.56-22.78
			c-2.4-10.74-11-17.97-19.22-16.15c-2.39,0.53-6.9,1.37-12.03,2.51C10.78,189.88,7,184.4,9.44,175.75z"/>
		<g>
			<path class="st1" d="M164.13,222.61c-1.9-8.47-7.65-14.74-14.03-16.12c-0.32,1.75-0.59,3.31-0.78,4.63
				c-1.98,13.3-0.12,23.84,5.58,31.61c0.43,0.58,0.88,1.15,1.34,1.7C162.77,241.19,166.24,232.12,164.13,222.61z"/>
			<path class="st1" d="M107.81,164.24c-4.96-0.27-8.31-2.64-9.81-6.14c-0.48,1.01-0.96,2-1.44,2.93
				c-7.03,13.64-16.5,26.37-28.39,38.19c-8.14,8.15-12.6,14.86-13.39,20.13c-0.7,4.68,0.16,8.8,2.53,12.37
				c0.55-0.16,1.11-0.32,1.68-0.45c10.17-2.26,19.85,1.86,22.4,9.3c3.96-0.93,7.52-3,10.69-6.24c5.37-5.48,11.48-18.49,18.32-39.02
				c2.75-8.25,5.71-18.5,8.87-30.74C115.45,164.54,111.62,164.45,107.81,164.24z"/>
		</g>
	</g>
	<g>
		<path class="st2" d="M124.91,196.31c3.08-10.92,6.91-21.67,11.48-32.14l0.12,0.05c10.49,4.58,21.24,8.42,32.18,11.51
			c8.65,2.43,14.12-1.36,12.64-7.98c-1.15-5.13-1.97-9.64-2.5-12.03c-1.82-8.23,5.4-16.82,16.14-19.22
			c10.74-2.39,20.94,2.33,22.78,10.56c0.78,3.52-1.02,12.33-4.19,21.45c-2.95,8.48,0.76,15.82,9.73,16.3
			c9.47,0.51,19.02,0.49,28.57-0.08h0.02c-4.57,10.49-8.42,21.22-11.49,32.16c-2.45,8.65,1.34,14.12,7.96,12.64
			c5.13-1.15,9.63-1.97,12.03-2.5c8.22-1.83,16.82,5.4,19.22,16.14c2.39,10.74-2.34,20.94-10.56,22.78
			c-3.52,0.77-12.33-1.02-21.44-4.2c-8.48-2.94-15.82,0.76-16.31,9.73c-0.51,9.48-0.49,19.01,0.08,28.57l-0.02,0.03
			c-9.55,0.56-19.07,0.59-28.57,0.07c-8.97-0.49-12.67-7.82-9.72-16.32c3.18-9.1,4.97-17.9,4.19-21.43
			c-1.84-8.23-12.04-12.95-22.78-10.56c-10.74,2.4-17.97,11-16.14,19.22c0.53,2.39,1.35,6.9,2.51,12.03
			c1.5,6.63-3.98,10.41-12.64,7.97c-10.94-3.08-21.69-6.91-32.18-11.49l-0.11-0.1c-0.56-9.55-0.59-19.08-0.06-28.57
			c0.47-8.97,7.8-12.68,16.3-9.72c9.1,3.17,17.92,4.99,21.43,4.19c8.23-1.84,12.95-12.04,10.56-22.78
			c-2.4-10.74-11-17.97-19.22-16.15c-2.39,0.53-6.9,1.37-12.03,2.51C126.24,210.45,122.46,204.97,124.91,196.31z"/>
		<path class="st1" d="M229.64,210.66l-6.78-1.01c-4.52,14.85-12.8,21.37-24.85,19.58c-5.77-0.86-10.41-3.5-13.92-7.94
			c-3.51-4.43-3.96-15.37-1.37-32.81c1.08-7.28,2.74-15.82,4.97-25.62l5.62-25.93c-9.82,2.87-16.23,10.99-14.5,18.79
			c0.53,2.39,1.35,6.9,2.5,12.03c1.48,6.62-3.98,10.41-12.64,7.98c-3.71-1.04-7.39-2.18-11.05-3.4
			c-3.64,15.33-6.15,26.71-7.51,34.15c6.36,1.4,12.1,7.66,13.99,16.11c2.11,9.47-1.32,18.51-7.81,21.78
			c3.4,4.07,7.64,7.18,12.7,9.35c1.68-0.8,3.5-1.44,5.44-1.88c7.78-1.73,15.26,0.29,19.5,4.65
			C210.35,253.05,222.25,237.78,229.64,210.66z"/>
	</g>
	<g>
		<path class="st3" d="M145.39,81.01c3.08-10.92,6.91-21.67,11.48-32.14l0.12,0.05c10.49,4.58,21.24,8.42,32.18,11.51
			c8.65,2.43,14.12-1.36,12.64-7.98c-1.15-5.13-1.97-9.64-2.5-12.03c-1.82-8.23,5.4-16.82,16.14-19.22
			c10.74-2.39,20.94,2.33,22.78,10.56c0.78,3.52-1.02,12.33-4.19,21.45c-2.95,8.48,0.76,15.82,9.73,16.3
			c9.47,0.51,19.02,0.49,28.57-0.08h0.02c-4.57,10.49-8.42,21.22-11.49,32.16c-2.45,8.65,1.34,14.12,7.96,12.64
			c5.13-1.15,9.63-1.97,12.03-2.5c8.22-1.83,16.82,5.4,19.22,16.14c2.39,10.74-2.34,20.94-10.56,22.78
			c-3.52,0.77-12.33-1.02-21.44-4.2c-8.48-2.94-15.82,0.76-16.31,9.73c-0.51,9.48-0.49,19.01,0.08,28.57l-0.02,0.03
			c-9.55,0.56-19.07,0.59-28.57,0.07c-8.97-0.49-12.67-7.82-9.72-16.32c3.18-9.1,4.97-17.9,4.19-21.43
			c-1.84-8.23-12.04-12.95-22.78-10.56c-10.74,2.4-17.97,11-16.14,19.22c0.53,2.39,1.35,6.9,2.51,12.03
			c1.5,6.63-3.98,10.41-12.64,7.97c-10.94-3.08-21.69-6.91-32.18-11.49l-0.11-0.1c-0.56-9.55-0.59-19.08-0.06-28.57
			c0.47-8.97,7.8-12.68,16.3-9.72c9.1,3.17,17.92,4.99,21.43,4.19c8.23-1.84,12.95-12.04,10.56-22.78
			c-2.4-10.74-11-17.97-19.22-16.15c-2.39,0.53-6.9,1.37-12.03,2.51C146.73,95.14,142.94,89.66,145.39,81.01z"/>
		<path class="st1" d="M247.74,85.35l-99.15-14.77c-1.14,3.46-2.21,6.93-3.2,10.43c-2.45,8.65,1.33,14.14,7.96,12.64
			c5.13-1.14,9.64-1.97,12.03-2.51c8.22-1.82,16.82,5.41,19.22,16.15c2.39,10.73-2.33,20.93-10.56,22.78
			c-1.33,0.3-3.43,0.23-6.01-0.15l-6.43,26.11c-1.44,5.88-2.76,11.32-3.95,16.35c3.65,1.21,7.32,2.35,11.01,3.39
			c8.65,2.45,14.14-1.34,12.64-7.97c-1.15-5.13-1.97-9.64-2.51-12.03c-1.73-7.81,4.7-15.94,14.54-18.8l6.64-30.63l43.66,6.5
			L247.74,85.35z"/>
	</g>
	<g>
		<path class="st4" d="M29.93,60.43c3.08-10.92,6.91-21.67,11.48-32.14l0.12,0.05c10.49,4.58,21.24,8.42,32.18,11.51
			c8.65,2.43,14.12-1.36,12.64-7.98c-1.15-5.13-1.97-9.64-2.5-12.03c-1.82-8.23,5.4-16.82,16.14-19.22
			c10.74-2.39,20.94,2.33,22.78,10.56c0.78,3.52-1.02,12.33-4.19,21.45c-2.95,8.48,0.76,15.82,9.73,16.3
			c9.47,0.51,19.02,0.49,28.57-0.08h0.02c-4.57,10.49-8.42,21.22-11.49,32.16c-2.45,8.65,1.34,14.12,7.96,12.64
			c5.13-1.15,9.63-1.97,12.03-2.5c8.22-1.83,16.82,5.4,19.22,16.14c2.39,10.74-2.34,20.94-10.56,22.78
			c-3.52,0.77-12.33-1.02-21.44-4.2c-8.48-2.94-15.82,0.76-16.31,9.73c-0.51,9.48-0.49,19.01,0.08,28.57l-0.02,0.03
			c-9.55,0.56-19.07,0.59-28.57,0.07c-8.97-0.49-12.67-7.82-9.72-16.32c3.18-9.1,4.97-17.9,4.19-21.43
			c-1.84-8.23-12.04-12.95-22.78-10.56c-10.74,2.4-17.97,11-16.14,19.22c0.53,2.39,1.35,6.9,2.51,12.03
			c1.5,6.63-3.98,10.41-12.64,7.97c-10.94-3.08-21.69-6.91-32.18-11.49l-0.11-0.1c-0.56-9.55-0.59-19.08-0.06-28.57
			c0.47-8.97,7.8-12.68,16.3-9.72c9.1,3.17,17.92,4.99,21.43,4.19c8.23-1.84,12.95-12.04,10.56-22.78
			c-2.4-10.74-11-17.97-19.22-16.15c-2.39,0.53-6.9,1.37-12.03,2.51C31.26,74.56,27.48,69.08,29.93,60.43z"/>
		<path class="st1" d="M148.56,70.65l-20.87-3.11c-15.56-2.32-26.58-2.61-33.05-0.88c-6.48,1.73-13.25,6.49-20.31,14.29
			c-1.74,1.92-3.44,4.01-5.1,6.24c2.14,10.55-2.55,20.48-10.65,22.29c-0.6,0.14-1.38,0.19-2.27,0.18c-0.35,0.76-0.69,1.53-1.03,2.31
			l6.78,1.01c6.16-7.8,12.32-13.59,18.46-17.35c6.14-3.77,14.35-4.88,24.64-3.35l12.8,1.91c-6.7,28.92-13.34,50.28-19.91,64.09
			c1.53,3.42,4.84,5.73,9.74,6c3.86,0.21,7.72,0.3,11.59,0.34c4.71-18.22,9.89-40.85,15.53-67.9l39.9,5.94l-6.71,27.26
			c2.56,0.37,4.64,0.45,5.96,0.16c8.23-1.84,12.95-12.04,10.56-22.78c-2.4-10.74-11-17.97-19.22-16.14
			c-2.39,0.53-6.9,1.35-12.03,2.5c-6.63,1.48-10.42-3.98-7.96-12.64C146.37,77.54,147.43,74.08,148.56,70.65z"/>
	</g>
</g>
</svg>
