<?xml version="1.0" encoding="utf-8"?>
<!-- Generator: Adobe Illustrator 20.1.0, SVG Export Plug-In . SVG Version: 6.00 Build 0)  -->
<svg version="1.1" id="Layer_1" xmlns="http://www.w3.org/2000/svg" xmlns:xlink="http://www.w3.org/1999/xlink" x="0px" y="0px"
	 viewBox="0 0 447.43 130" style="enable-background:new 0 0 447.43 130;" xml:space="preserve">
<style type="text/css">
	.st0{fill:#498BCA;}
	.st1{fill:#2B3990;}
	.st2{fill:#F9BC15;}
	.st3{fill:#36A852;}
	.st4{fill:#EB4435;}
	.st5{fill:#FFFFFF;}
</style>
<g>
	<g>
		<path class="st0" d="M3.26,78.17c1.2-4.81,2.73-9.57,4.58-14.21l0.05,0.02c4.65,1.86,9.4,3.39,14.22,4.59
			c3.82,0.95,6.15-0.78,5.42-3.66c-0.57-2.23-0.99-4.19-1.26-5.22c-0.91-3.57,2.13-7.43,6.79-8.62c4.66-1.19,9.18,0.74,10.1,4.31
			c0.39,1.53-0.28,5.4-1.54,9.43c-1.17,3.75,0.54,6.9,4.47,6.99c4.15,0.1,8.32-0.04,12.49-0.42l0.01,0
			c-1.86,4.65-3.39,9.39-4.58,14.21c-0.95,3.82,0.78,6.15,3.65,5.41c2.23-0.57,4.18-0.99,5.22-1.26c3.57-0.91,7.42,2.13,8.62,6.79
			c1.19,4.66-0.74,9.18-4.31,10.1c-1.53,0.39-5.4-0.28-9.43-1.54c-3.75-1.17-6.9,0.55-7,4.47c-0.09,4.15,0.04,8.32,0.42,12.49
			l-0.01,0.01c-4.17,0.38-8.33,0.52-12.49,0.42c-3.93-0.09-5.64-3.25-4.47-7c1.26-4.02,1.93-7.89,1.54-9.42
			c-0.92-3.57-5.44-5.5-10.1-4.31c-4.66,1.2-7.7,5.05-6.79,8.62c0.27,1.04,0.68,3,1.26,5.22c0.74,2.88-1.6,4.61-5.42,3.65
			c-4.82-1.2-9.57-2.73-14.22-4.59l-0.05-0.04c-0.38-4.17-0.52-8.33-0.41-12.49c0.08-3.93,3.24-5.65,6.99-4.47
			c4.02,1.26,7.9,1.94,9.42,1.54c3.57-0.92,5.5-5.44,4.31-10.1c-1.2-4.66-5.05-7.7-8.62-6.8c-1.04,0.27-3,0.69-5.22,1.26
			C4.04,84.33,2.31,81.99,3.26,78.17z"/>
		<g>
			<path class="st1" d="M71.51,96.56c-0.94-3.68-3.54-6.34-6.35-6.85c-0.12,0.77-0.21,1.45-0.28,2.03
				c-0.69,5.84,0.27,10.42,2.87,13.74c0.2,0.25,0.4,0.49,0.61,0.72C71.17,104.7,72.56,100.68,71.51,96.56z"/>
			<path class="st1" d="M46.1,71.81c-2.17-0.05-3.67-1.04-4.37-2.55c-0.2,0.45-0.39,0.89-0.59,1.3
				c-2.89,6.06-6.85,11.75-11.89,17.08c-3.45,3.67-5.31,6.67-5.58,8.98c-0.24,2.06,0.19,3.84,1.27,5.37
				c0.24-0.08,0.48-0.15,0.73-0.22c4.42-1.13,8.7,0.54,9.92,3.76c1.72-0.46,3.25-1.42,4.59-2.87c2.27-2.47,4.77-8.24,7.48-17.3
				c1.09-3.64,2.24-8.16,3.46-13.56C49.44,71.84,47.77,71.85,46.1,71.81z"/>
		</g>
	</g>
	<g>
		<path class="st2" d="M53.99,85.64c1.2-4.81,2.73-9.57,4.58-14.21l0.05,0.02c4.65,1.86,9.4,3.39,14.22,4.59
			c3.82,0.95,6.15-0.78,5.42-3.66c-0.57-2.23-0.99-4.19-1.26-5.22c-0.91-3.57,2.13-7.43,6.79-8.62c4.66-1.19,9.18,0.74,10.1,4.31
			c0.39,1.53-0.28,5.4-1.54,9.43c-1.17,3.75,0.54,6.9,4.47,6.99c4.15,0.1,8.32-0.04,12.49-0.42l0.01,0
			c-1.86,4.65-3.39,9.39-4.58,14.21c-0.95,3.82,0.78,6.15,3.65,5.41c2.23-0.57,4.18-0.99,5.22-1.26c3.57-0.91,7.42,2.13,8.62,6.79
			c1.19,4.66-0.74,9.18-4.31,10.1c-1.53,0.39-5.4-0.28-9.43-1.54c-3.75-1.17-6.9,0.55-6.99,4.47c-0.09,4.15,0.04,8.32,0.42,12.49
			l-0.01,0.01c-4.17,0.38-8.33,0.52-12.49,0.42c-3.93-0.09-5.64-3.25-4.47-7c1.26-4.02,1.93-7.89,1.54-9.42
			c-0.92-3.57-5.44-5.5-10.1-4.31c-4.66,1.2-7.7,5.05-6.79,8.62c0.27,1.04,0.68,3,1.26,5.22c0.74,2.88-1.6,4.61-5.42,3.65
			c-4.82-1.2-9.57-2.73-14.22-4.59l-0.05-0.04c-0.38-4.17-0.52-8.33-0.41-12.49c0.08-3.93,3.24-5.65,6.99-4.47
			c4.02,1.26,7.9,1.94,9.42,1.54c3.57-0.92,5.5-5.44,4.31-10.1c-1.2-4.66-5.05-7.7-8.62-6.8c-1.04,0.27-3,0.69-5.22,1.26
			C54.76,91.8,53.04,89.45,53.99,85.64z"/>
		<path class="st1" d="M99.96,90.49l-2.98-0.35c-1.77,6.55-5.31,9.51-10.6,8.89c-2.54-0.3-4.6-1.39-6.19-3.28
			c-1.59-1.89-1.94-6.66-1.04-14.32c0.38-3.19,0.98-6.95,1.83-11.26l2.11-11.41c-4.25,1.39-6.95,5.02-6.08,8.41
			c0.27,1.04,0.68,3,1.26,5.22c0.74,2.88-1.6,4.61-5.42,3.66c-1.63-0.41-3.26-0.85-4.88-1.34c-1.39,6.75-2.33,11.76-2.82,15.03
			c2.8,0.52,5.39,3.18,6.33,6.85c1.05,4.11-0.33,8.11-3.12,9.62c1.54,1.73,3.43,3.04,5.68,3.91c0.72-0.37,1.51-0.68,2.35-0.89
			c3.38-0.86,6.68-0.08,8.59,1.77C92.1,109.28,97.1,102.45,99.96,90.49z"/>
	</g>
	<g>
		<path class="st3" d="M61.38,34.91c1.2-4.81,2.73-9.57,4.58-14.21l0.05,0.02c4.65,1.86,9.4,3.39,14.22,4.59
			c3.82,0.95,6.15-0.78,5.42-3.66c-0.57-2.23-0.99-4.19-1.26-5.22c-0.91-3.57,2.13-7.43,6.79-8.62c4.66-1.19,9.18,0.74,10.1,4.31
			c0.39,1.53-0.28,5.4-1.54,9.43c-1.17,3.75,0.54,6.9,4.47,6.99c4.15,0.1,8.32-0.04,12.49-0.42l0.01,0
			c-1.86,4.65-3.39,9.39-4.58,14.21c-0.95,3.82,0.78,6.15,3.65,5.41c2.23-0.57,4.18-0.99,5.22-1.26c3.57-0.91,7.42,2.13,8.62,6.79
			c1.19,4.66-0.74,9.18-4.31,10.1c-1.53,0.39-5.4-0.28-9.43-1.54c-3.75-1.17-6.9,0.55-7,4.47c-0.09,4.15,0.04,8.32,0.42,12.49
			l-0.01,0.01c-4.17,0.38-8.33,0.52-12.49,0.42c-3.93-0.09-5.64-3.25-4.47-7c1.26-4.02,1.93-7.89,1.54-9.42
			c-0.92-3.57-5.44-5.5-10.1-4.31c-4.66,1.2-7.7,5.05-6.79,8.62c0.27,1.04,0.68,3,1.26,5.22c0.74,2.88-1.6,4.61-5.42,3.65
			c-4.82-1.2-9.57-2.73-14.22-4.59l-0.05-0.04c-0.38-4.17-0.52-8.33-0.41-12.49c0.08-3.93,3.24-5.65,6.99-4.47
			c4.02,1.26,7.9,1.94,9.42,1.54c3.57-0.92,5.5-5.44,4.31-10.1c-1.2-4.66-5.05-7.7-8.62-6.8c-1.04,0.27-3,0.69-5.22,1.26
			C62.15,41.07,60.43,38.73,61.38,34.91z"/>
		<path class="st1" d="M106.17,35.42l-43.54-5.11c-0.45,1.53-0.87,3.06-1.26,4.6c-0.95,3.82,0.77,6.16,3.65,5.42
			c2.23-0.57,4.19-0.99,5.22-1.26c3.57-0.91,7.42,2.13,8.62,6.8c1.19,4.66-0.74,9.18-4.31,10.1c-0.58,0.15-1.5,0.15-2.63,0.01
			l-2.46,11.5c-0.55,2.59-1.05,4.98-1.51,7.2c1.61,0.48,3.23,0.93,4.86,1.33c3.82,0.95,6.16-0.78,5.42-3.65
			c-0.57-2.23-0.99-4.18-1.26-5.22c-0.86-3.39,1.84-7.03,6.1-8.41l2.49-13.48l19.17,2.25L106.17,35.42z"/>
	</g>
	<g>
		<path class="st4" d="M10.62,27.45c1.2-4.81,2.73-9.57,4.58-14.21l0.05,0.02c4.65,1.86,9.4,3.39,14.22,4.59
			c3.82,0.95,6.15-0.78,5.42-3.66c-0.57-2.23-0.99-4.19-1.26-5.22c-0.91-3.57,2.13-7.43,6.79-8.62c4.66-1.19,9.18,0.74,10.1,4.31
			c0.39,1.53-0.28,5.4-1.54,9.43c-1.17,3.75,0.54,6.9,4.47,6.99c4.15,0.1,8.32-0.04,12.49-0.42l0.01,0
			c-1.86,4.65-3.39,9.39-4.58,14.21c-0.95,3.82,0.78,6.15,3.65,5.41c2.23-0.57,4.18-0.99,5.22-1.26c3.57-0.91,7.42,2.13,8.62,6.79
			c1.19,4.66-0.74,9.18-4.31,10.1c-1.53,0.39-5.4-0.28-9.43-1.54c-3.75-1.17-6.9,0.55-7,4.47c-0.09,4.15,0.04,8.32,0.42,12.49
			l-0.01,0.01c-4.17,0.38-8.33,0.52-12.49,0.42c-3.93-0.09-5.64-3.25-4.47-7c1.26-4.02,1.93-7.89,1.54-9.42
			c-0.92-3.57-5.44-5.5-10.1-4.31c-4.66,1.2-7.7,5.05-6.79,8.62c0.27,1.04,0.68,3,1.26,5.22c0.74,2.88-1.6,4.61-5.42,3.65
			c-4.82-1.2-9.57-2.73-14.22-4.59L7.8,63.91c-0.38-4.17-0.52-8.33-0.41-12.49c0.08-3.93,3.24-5.65,6.99-4.47
			c4.02,1.26,7.9,1.94,9.42,1.54c3.57-0.92,5.5-5.44,4.31-10.1c-1.2-4.66-5.05-7.7-8.62-6.8c-1.04,0.27-3,0.69-5.22,1.26
			C11.39,33.61,9.67,31.26,10.62,27.45z"/>
		<path class="st1" d="M62.61,30.31l-9.16-1.08c-6.83-0.8-11.65-0.78-14.46,0.06c-2.81,0.84-5.7,3.02-8.68,6.52
			c-0.74,0.86-1.45,1.8-2.14,2.8c1.08,4.58-0.84,8.98-4.35,9.89c-0.26,0.07-0.6,0.1-0.99,0.11c-0.14,0.34-0.28,0.68-0.42,1.02
			l2.98,0.35c2.59-3.49,5.2-6.11,7.83-7.84c2.63-1.73,6.21-2.33,10.73-1.8l5.62,0.66c-2.54,12.73-5.15,22.16-7.83,28.28
			c0.72,1.47,2.2,2.44,4.34,2.49c1.69,0.04,3.38,0.03,5.07-0.01c1.81-8.03,3.77-17.99,5.87-29.89l17.52,2.06l-2.56,12.01
			c1.12,0.13,2.03,0.13,2.61-0.01c3.57-0.92,5.5-5.44,4.31-10.1c-1.2-4.66-5.05-7.7-8.62-6.79c-1.04,0.27-3,0.68-5.22,1.26
			c-2.88,0.74-4.61-1.6-3.65-5.41C61.75,33.35,62.16,31.82,62.61,30.31z"/>
	</g>
</g>
<path class="st5" d="M349.91,108.78h-2.99L338.95,96l-2.29,2.45v10.33h-2.54V82.43h2.54V95.5l9.92-13.07h3.01l-8.8,11.45
	L349.91,108.78L349.91,108.78z M365.11,108.78h-12.19V82.43h12.19v2.72h-9.65v8.49h9.07v2.7h-9.07v9.7h9.65
	C365.11,106.04,365.11,108.78,365.11,108.78z M387.04,108.78h-2.9l-11.95-22.12h-0.12c0.16,2.6,0.24,4.97,0.24,7.14v14.98h-2.35
	V82.43h2.87l11.92,22.02h0.12c-0.02-0.32-0.07-1.37-0.13-3.13c-0.07-1.76-0.09-3.02-0.07-3.78V82.43h2.38L387.04,108.78
	L387.04,108.78z M399.79,108.78h-2.54V85.15h-6.93v-2.72h16.4v2.72h-6.93V108.78z M423.87,90.11c0,2.67-0.76,4.72-2.27,6.16
	s-3.67,2.15-6.49,2.15h-2.57v10.36H410V82.43h5.67C421.14,82.43,423.87,84.99,423.87,90.11L423.87,90.11z M412.55,95.79h2.29
	c2.25,0,3.88-0.44,4.89-1.32s1.51-2.28,1.51-4.22c0-1.74-0.47-3.04-1.42-3.89s-2.42-1.28-4.43-1.28h-2.84L412.55,95.79L412.55,95.79
	z M447.43,95.57c0,4.22-0.89,7.53-2.66,9.95s-4.23,3.62-7.38,3.62c-3.22,0-5.71-1.19-7.46-3.56s-2.62-5.72-2.62-10.05
	c0-4.29,0.88-7.62,2.63-9.98s4.25-3.54,7.48-3.54c3.14,0,5.6,1.2,7.36,3.6C446.55,88.02,447.43,91.34,447.43,95.57z M430.01,95.57
	c0,3.57,0.63,6.28,1.89,8.12s3.09,2.77,5.5,2.77c2.42,0,4.25-0.92,5.49-2.76c1.24-1.84,1.85-4.55,1.85-8.13
	c0-3.54-0.62-6.23-1.85-8.07c-1.23-1.83-3.05-2.75-5.47-2.75s-4.27,0.92-5.53,2.77S430.01,92.05,430.01,95.57z M174.1,66.76h-4.16
	V30.91h-18.38v35.86h-4.16V26.78h26.69v39.98L174.1,66.76z M192.89,67.31c-3.49,0-6.21-1.35-8.15-4.06
	c-1.94-2.71-2.91-6.5-2.91-11.39c0-5,1-8.85,2.99-11.56s4.82-4.06,8.49-4.06c1.97,0,3.62,0.38,4.93,1.15s2.41,1.91,3.29,3.45h0.29
	c0.39-1.68,0.92-3.03,1.59-4.05h3.16c-0.34,1.2-0.63,2.93-0.86,5.17s-0.34,4.42-0.34,6.54v12.01c0,2.08,0.69,3.12,2.06,3.12
	c0.47,0,0.98-0.09,1.52-0.27v3.25c-0.75,0.47-1.66,0.71-2.72,0.71c-1.32,0-2.35-0.37-3.07-1.11c-0.73-0.74-1.24-1.89-1.53-3.46
	h-0.32c-0.96,1.57-2.12,2.72-3.49,3.46S194.82,67.31,192.89,67.31L192.89,67.31z M193.5,63.51c2.76,0,4.75-0.89,5.97-2.67
	c1.22-1.78,1.83-4.65,1.83-8.63V51.8c0-4.18-0.62-7.17-1.86-8.98s-3.24-2.72-5.99-2.72c-4.94,0-7.41,3.94-7.41,11.82
	c0,3.87,0.6,6.77,1.8,8.7S190.93,63.51,193.5,63.51z M217.8,36.79v21.17c0,1.9,0.3,3.31,0.89,4.23c0.6,0.92,1.6,1.38,3.02,1.38
	c0.6,0,1.32-0.06,2.14-0.18c0.82-0.12,1.46-0.24,1.9-0.37v3.47c-0.51,0.24-1.19,0.43-2.04,0.59c-0.86,0.15-1.69,0.23-2.51,0.23
	c-2.61,0-4.51-0.77-5.69-2.3c-1.18-1.53-1.77-3.84-1.77-6.92v-21.3C213.74,36.79,217.8,36.79,217.8,36.79z M239.94,41.16
	c-2.28-1.42-3.9-2.86-4.84-4.31c-0.95-1.45-1.42-3.08-1.42-4.88c0-2.37,0.79-4.25,2.37-5.63s3.71-2.08,6.39-2.08
	c1.68,0,3.29,0.21,4.83,0.62c1.54,0.41,3.34,1.19,5.4,2.34l-1.76,3.69c-1.83-1.13-3.39-1.9-4.69-2.3s-2.61-0.6-3.93-0.6
	c-1.39,0-2.48,0.36-3.27,1.08c-0.79,0.72-1.19,1.68-1.19,2.89c0,1.29,0.44,2.45,1.31,3.46s2.67,2.35,5.4,4.01
	c3.42,2.1,5.86,4.24,7.3,6.44s2.17,4.79,2.17,7.78c0,4.29-1.11,7.63-3.33,10.04s-5.25,3.61-9.1,3.61c-3.7,0-6.66-1.13-8.88-3.39
	s-3.33-5.31-3.33-9.14c0-3.23,0.92-6.03,2.76-8.41C233.98,43.99,236.58,42.26,239.94,41.16L239.94,41.16z M249.8,53.66
	c0-2.33-0.5-4.33-1.5-6s-2.66-3.18-4.96-4.53c-3.36,0.97-5.82,2.44-7.38,4.42s-2.34,4.43-2.34,7.34c0,2.63,0.73,4.72,2.18,6.28
	c1.45,1.56,3.38,2.34,5.77,2.34c2.64,0,4.67-0.85,6.09-2.54S249.8,56.83,249.8,53.66L249.8,53.66z M269.55,67.31
	c-3.49,0-6.21-1.35-8.15-4.06c-1.94-2.71-2.91-6.5-2.91-11.39c0-5,1-8.85,2.99-11.56s4.82-4.06,8.49-4.06
	c1.97,0,3.62,0.38,4.93,1.15s2.41,1.91,3.29,3.45h0.29c0.39-1.68,0.92-3.03,1.59-4.05h3.16c-0.34,1.2-0.63,2.93-0.86,5.17
	s-0.34,4.42-0.34,6.53V60.5c0,2.08,0.69,3.12,2.06,3.12c0.47,0,0.98-0.09,1.52-0.27v3.25c-0.75,0.47-1.66,0.71-2.72,0.71
	c-1.32,0-2.34-0.37-3.07-1.11c-0.73-0.74-1.24-1.89-1.53-3.46h-0.32c-0.96,1.57-2.12,2.72-3.49,3.46S271.47,67.31,269.55,67.31z
	 M270.16,63.51c2.76,0,4.75-0.89,5.97-2.67c1.22-1.78,1.83-4.65,1.83-8.63V51.8c0-4.18-0.62-7.17-1.86-8.98s-3.24-2.72-5.99-2.72
	c-4.94,0-7.41,3.94-7.41,11.82c0,3.87,0.6,6.77,1.8,8.7S267.58,63.51,270.16,63.51z M299.3,80.22h-4.4c0-1.75,0.26-3.97,0.78-6.65
	s1.13-5.06,1.83-7.14l-10.98-29.64h4.21l5.87,15.97c1.53,4.29,2.46,7.37,2.76,9.24h0.2c0.08-0.55,0.29-1.47,0.62-2.76
	c0.33-1.29,0.68-2.53,1.03-3.71s2.43-7.43,6.25-18.75h4.21l-9.91,29.24c-0.78,2.26-1.39,4.72-1.82,7.39
	C299.51,76.07,299.3,78.34,299.3,80.22z M324.18,67.31c-2.97,0-5.28-1.35-6.94-4.05s-2.48-6.36-2.48-11c0-2.84,0.22-5.44,0.67-7.78
	s1.23-4.91,2.34-7.7h4.21c-1.11,2.84-1.9,5.43-2.36,7.75c-0.46,2.33-0.7,4.92-0.7,7.78c0,3.52,0.49,6.26,1.47,8.23
	s2.34,2.95,4.09,2.95c1.53,0,2.73-0.65,3.58-1.96c0.86-1.3,1.29-3.09,1.29-5.37v-8.51h3.94v8.51c0,2.33,0.43,4.14,1.3,5.42
	c0.86,1.28,2.06,1.91,3.57,1.91c1.75,0,3.11-0.98,4.09-2.95s1.47-4.71,1.47-8.23c0-2.75-0.22-5.31-0.67-7.69
	c-0.45-2.37-1.24-4.99-2.36-7.85h4.21c1.06,2.66,1.82,5.19,2.29,7.59c0.46,2.4,0.7,5.03,0.7,7.89c0,4.6-0.83,8.25-2.48,10.97
	c-1.66,2.72-3.97,4.08-6.94,4.08c-3.59,0-5.94-1.66-7.05-4.98h-0.22C330.12,65.65,327.79,67.31,324.18,67.31z M363.7,80.22h-4.4
	c0-1.75,0.26-3.97,0.78-6.65s1.13-5.06,1.83-7.14l-10.99-29.65h4.21L361,52.75c1.53,4.29,2.46,7.37,2.76,9.24h0.2
	c0.08-0.55,0.29-1.47,0.62-2.76c0.33-1.29,0.68-2.53,1.03-3.71s2.43-7.43,6.25-18.75h4.21l-9.91,29.24
	c-0.78,2.26-1.39,4.72-1.82,7.39S363.7,78.34,363.7,80.22L363.7,80.22z M384.52,36.79v21.17c0,1.9,0.3,3.31,0.89,4.23
	c0.59,0.92,1.6,1.38,3.02,1.38c0.6,0,1.32-0.06,2.14-0.18s1.46-0.24,1.9-0.37v3.47c-0.51,0.24-1.19,0.43-2.04,0.59
	c-0.86,0.15-1.69,0.23-2.51,0.23c-2.61,0-4.51-0.77-5.69-2.3s-1.77-3.84-1.77-6.92v-21.3C380.46,36.79,384.52,36.79,384.52,36.79z
	 M413.27,36.84h5.06L408.2,50.02l10.84,16.74h-4.92l-8.83-13.78l-3.3,3.09v10.69h-4.35V36.84h4.35v7.74c0,3.03-0.1,5.57-0.29,7.63
	L413.27,36.84z M446.74,51.75c0,4.89-1.1,8.7-3.3,11.45c-2.2,2.74-5.24,4.12-9.13,4.12c-2.4,0-4.53-0.63-6.39-1.89
	c-1.86-1.26-3.29-3.06-4.31-5.42c-1.01-2.35-1.52-5.1-1.52-8.26c0-4.89,1.09-8.69,3.28-11.42s5.22-4.09,9.1-4.09
	c3.75,0,6.73,1.4,8.94,4.18C445.63,43.21,446.74,46.99,446.74,51.75z M426.31,51.75c0,3.83,0.68,6.75,2.05,8.75s3.38,3.01,6.04,3.01
	s4.68-1,6.06-2.99c1.38-2,2.07-4.92,2.07-8.77c0-3.81-0.69-6.71-2.07-8.68c-1.38-1.98-3.41-2.97-6.1-2.97
	c-2.66,0-4.67,0.98-6.02,2.93C426.98,44.97,426.31,47.88,426.31,51.75z M432.52,32.03c0.44-1.31,0.88-3,1.31-5.07
	s0.75-3.85,0.94-5.35h4.5v0.63c-0.29,1.35-0.88,3.1-1.77,5.26c-0.89,2.16-1.73,3.93-2.53,5.32h-2.45
	C432.52,32.82,432.52,32.03,432.52,32.03z"/>
<g>
</g>
<g>
</g>
<g>
</g>
<g>
</g>
<g>
</g>
<g>
</g>
</svg>
